<?xml version="1.0" encoding="iso-8859-1"?>
<!-- Generator: Adobe Illustrator 19.0.0, SVG Export Plug-In . SVG Version: 6.00 Build 0)  -->
<svg version="1.1" id="Capa_1" xmlns="http://www.w3.org/2000/svg" xmlns:xlink="http://www.w3.org/1999/xlink" x="0px" y="0px"
	 viewBox="0 0 512 512" style="enable-background:new 0 0 512 512;" xml:space="preserve">
<g>
	<path style="fill:#C8E6EB;" d="M137.9,194.883l-14.034-4.945l40.953-116.249c0.667-1.894,2.745-2.891,4.64-2.223l7.171,2.527
		c1.895,0.668,2.891,2.745,2.223,4.64L137.9,194.883z"/>
	<path style="fill:#C8E6EB;" d="M122.078,193.016l-14.832-1.211l10.037-122.843c0.163-2.002,1.92-3.494,3.922-3.33l7.579,0.619
		c2.001,0.163,3.494,1.92,3.33,3.922L122.078,193.016z"/>
</g>
<path style="fill:#A5C8CD;" d="M137.624,159.629l-14.632-2.706l22.427-121.195c0.366-1.976,2.264-3.281,4.24-2.916l7.478,1.383
	c1.975,0.366,3.281,2.264,2.916,4.24L137.624,159.629z"/>
<circle style="fill:#FFB69E;" cx="261.435" cy="42.846" r="42.839"/>
<path style="fill:#3C5A73;" d="M265.736,49.006l55.232,15.752c6.113,1.743,12.48-1.799,14.224-7.911s-1.799-12.48-7.911-14.224
	l-55.232-15.752c-6.113-1.743-12.48,1.799-14.224,7.911C256.082,40.894,259.625,47.263,265.736,49.006z"/>
<path style="fill:#1C9585;" d="M242.594,27.593L242.594,27.593c0.824-2.892-0.85-5.903-3.742-6.728l-11.922-3.4
	C239.368,0.51,262.706-5.126,281.747,5.129c19.493,10.498,27.566,33.922,19.33,53.957l-81.873-23.35
	c0.48-2.862,1.253-5.705,2.338-8.486l14.325,4.085C238.757,32.159,241.769,30.484,242.594,27.593z"/>
<path style="fill:#3C5A73;" d="M221.061,413.396l-58.887-142.003c-2.017-4.864,0.29-10.442,5.155-12.459
	c4.863-2.017,10.442,0.29,12.459,5.154l58.887,142.002c2.017,4.865-0.29,10.442-5.155,12.459
	C228.629,420.578,223.067,418.233,221.061,413.396z"/>
<path style="fill:#E64B55;" d="M403.159,505.623c-52.599,0-95.391-42.793-95.391-95.391s42.792-95.39,95.391-95.39
	s95.39,42.792,95.39,95.39S455.757,505.623,403.159,505.623z M403.159,329.866c-44.314,0-80.367,36.052-80.367,80.366
	c0,44.314,36.052,80.367,80.367,80.367s80.366-36.052,80.366-80.367C483.525,365.918,447.473,329.866,403.159,329.866z"/>
<path style="fill:#50555A;" d="M403.159,322.354c48.534,0,87.878,39.345,87.878,87.878s-39.345,87.879-87.878,87.879
	s-87.878-39.345-87.878-87.879S354.625,322.354,403.159,322.354 M403.159,308.466c-56.114,0-101.767,45.653-101.767,101.767
	S347.045,512,403.159,512s101.767-45.653,101.767-101.767C504.926,354.118,459.273,308.466,403.159,308.466L403.159,308.466z"/>
<path style="fill:#373C41;" d="M403.159,308.466c-0.151,0-0.301,0.005-0.452,0.006v13.888c0.151-0.001,0.3-0.006,0.452-0.006
	c48.534,0,87.879,39.345,87.879,87.878s-39.345,87.879-87.879,87.879c-0.151,0-0.301-0.005-0.452-0.006v13.888
	c0.151,0.001,0.3,0.006,0.452,0.006c56.114,0,101.767-45.653,101.767-101.767C504.926,354.118,459.273,308.466,403.159,308.466z"/>
<path id="SVGCleanerId_0" style="fill:#B9B9BE;" d="M403.159,385.9c-13.417,0-24.333,10.915-24.333,24.332
	c0,13.417,10.915,24.333,24.333,24.333c13.416,0,24.333-10.915,24.333-24.333C427.492,396.816,416.575,385.9,403.159,385.9
	L403.159,385.9z"/>
<g>
	<path id="SVGCleanerId_0_1_" style="fill:#B9B9BE;" d="M403.159,385.9c-13.417,0-24.333,10.915-24.333,24.332
		c0,13.417,10.915,24.333,24.333,24.333c13.416,0,24.333-10.915,24.333-24.333C427.492,396.816,416.575,385.9,403.159,385.9
		L403.159,385.9z"/>
</g>
<path style="fill:#E64B55;" d="M108.842,505.623c-52.599,0-95.39-42.793-95.39-95.391s42.792-95.39,95.39-95.39
	s95.39,42.792,95.39,95.39S161.439,505.623,108.842,505.623z M108.842,329.866c-44.314,0-80.366,36.052-80.366,80.366
	c0,44.314,36.052,80.367,80.366,80.367s80.366-36.052,80.366-80.367C189.208,365.918,153.155,329.866,108.842,329.866z"/>
<path style="fill:#50555A;" d="M108.841,322.354c48.534,0,87.878,39.345,87.878,87.878s-39.345,87.879-87.878,87.879
	s-87.878-39.345-87.878-87.879S60.308,322.354,108.841,322.354 M108.841,308.466c-56.114,0-101.767,45.653-101.767,101.767
	S52.727,512,108.841,512s101.767-45.653,101.767-101.767C210.608,354.118,164.956,308.466,108.841,308.466L108.841,308.466z"/>
<path style="fill:#373C41;" d="M108.841,308.466c-0.151,0-0.301,0.005-0.452,0.006v13.888c0.151-0.001,0.3-0.006,0.452-0.006
	c48.534,0,87.879,39.345,87.879,87.878s-39.345,87.879-87.879,87.879c-0.151,0-0.301-0.005-0.452-0.006v13.888
	c0.151,0.001,0.3,0.006,0.452,0.006c56.114,0,101.767-45.653,101.767-101.767C210.608,354.118,164.956,308.466,108.841,308.466z"/>
<path style="fill:#B9B9BE;" d="M108.841,385.9c-13.417,0-24.333,10.915-24.333,24.332c0,13.417,10.915,24.333,24.333,24.333
	s24.333-10.915,24.333-24.333C133.174,396.816,122.258,385.9,108.841,385.9L108.841,385.9z"/>
<path style="fill:#1C9585;" d="M227.463,416.389c-3.67-4.067-3.347-10.34,0.72-14.011l109.943-99.19l-150.884,0.09l-66.006,96.544
	h114.016c5.479,0,9.921,4.441,9.921,9.921c0,5.479-4.441,9.921-9.921,9.921H102.437c-3.68,0-7.056-2.036-8.774-5.29
	c-1.717-3.254-1.492-7.191,0.584-10.229l79.569-116.383c1.848-2.702,4.91-4.319,8.183-4.321l181.944-0.109c0.002,0,0.004,0,0.006,0
	c4.104,0,7.785,2.527,9.259,6.358c1.474,3.832,0.436,8.178-2.614,10.928L241.474,417.109
	C237.415,420.771,231.14,420.465,227.463,416.389z"/>
<path style="fill:#3C5A73;" d="M403.152,419.667c-4.144,0-8.007-2.616-9.401-6.759l-62.572-185.934
	c-1.02-3.027-0.518-6.359,1.346-8.953c1.864-2.593,4.863-4.132,8.057-4.132h38.247c5.479,0,9.921,4.441,9.921,9.921
	c0,5.479-4.442,9.921-9.921,9.921h-24.442l58.169,172.85c1.748,5.192-1.046,10.819-6.238,12.566
	C405.268,419.499,404.201,419.667,403.152,419.667z"/>
<path style="fill:#373C41;" d="M388.747,223.809c0-5.479-4.442-9.921-9.921-9.921h-38.247c-3.194,0-6.193,1.537-8.057,4.132
	c-1.864,2.594-2.365,5.926-1.346,8.953l2.274,6.757h45.375C384.306,233.729,388.747,229.288,388.747,223.809z"/>
<path style="fill:#823214;" d="M228.545,261.835c0,7.899-6.403,14.301-14.301,14.301h-75.226c-7.899,0-14.301-6.403-14.301-14.301
	c0-7.899,6.403-14.301,14.301-14.301h75.226C222.143,247.534,228.545,253.936,228.545,261.835z"/>
<path style="fill:#373C41;" d="M203.18,421.672c-2.445-6.111,0.528-13.047,6.64-15.492l53.731-21.492
	c6.112-2.446,13.048,0.529,15.492,6.64c2.444,6.111-0.528,13.047-6.64,15.491l-53.732,21.493
	C212.521,430.773,205.608,427.744,203.18,421.672z"/>
<path style="fill:#FFB69E;" d="M282.835,286.263c3.745-10.182-1.382-21.485-11.511-25.372l-46.681-17.919l38.206-101.062
	c5.632-14.749-0.342-30.731-13.341-35.695l-41.977-16.027c-13.001-4.964-28.105,2.97-33.736,17.719l-40.683,106.433
	c-6.637,17.364,2.046,36.821,19.402,43.477l86.325,33.108l-29.423,79.981c-3.784,10.283,1.486,21.687,11.771,25.47
	c2.26,0.831,4.572,1.226,6.848,1.226c8.079,0,15.671-4.972,18.623-12.997L282.835,286.263z"/>
<path style="fill:#3C5064;" d="M250.234,252.795l-25.591-9.824l38.206-101.062c5.632-14.749-0.342-30.731-13.341-35.695
	l-41.977-16.027c-13.001-4.964-28.105,2.97-33.736,17.719l-40.683,106.433c-6.637,17.364,2.046,36.821,19.402,43.477l83.188,31.905
	L250.234,252.795z"/>
<path style="fill:#1C9585;" d="M131.478,232.647c-1.132-5.935-0.681-12.248,1.635-18.307l40.682-106.434
	c5.632-14.749,20.736-22.683,33.737-17.719l41.977,16.027c13,4.964,18.973,20.944,13.341,35.695L224.643,242.97L131.478,232.647z"/>
<g>
	<path style="fill:#3C5A73;" d="M249.508,106.215l-5.538-2.114l-38.702,65.646c-7.85,13.315-22.329,21.586-37.784,21.586h-25.578
		l-7.204,18.849h32.782c22.098,0,42.797-11.826,54.021-30.863l38.367-65.079C257.281,110.668,253.776,107.845,249.508,106.215z"/>
	<path style="fill:#3C5A73;" d="M131.173,219.972c-2.905,7.653-11.484,11.491-19.125,8.555l-24.01-9.226
		c-7.622-2.929-11.427-11.481-8.499-19.104l30.277-78.802l51.292,19.707L131.173,219.972z"/>
</g>
<path style="fill:#FFB69E;" d="M330.722,235.613l-75.734-11.494c-5.632-0.854-10.462-4.471-12.866-9.635l-39.426-84.643
	c-3.966-8.516-0.278-18.635,8.237-22.601c8.514-3.967,18.635-0.279,22.601,8.237l35.575,76.375l66.718,10.126
	c9.289,1.409,15.675,10.082,14.265,19.37C348.685,230.608,340.033,237.029,330.722,235.613z"/>
<path style="fill:#39AE96;" d="M221.838,170.939l30.911-14.208l-19.216-41.255c-3.966-8.517-14.087-12.204-22.601-8.237
	c-8.516,3.966-12.204,14.085-8.237,22.601L221.838,170.939z"/>
<g>
</g>
<g>
</g>
<g>
</g>
<g>
</g>
<g>
</g>
<g>
</g>
<g>
</g>
<g>
</g>
<g>
</g>
<g>
</g>
<g>
</g>
<g>
</g>
<g>
</g>
<g>
</g>
<g>
</g>
</svg>
